<svg width="71" height="70" viewBox="0 0 71 70" fill="none" xmlns="http://www.w3.org/2000/svg">
<path fill-rule="evenodd" clip-rule="evenodd" d="M5.49023 21.5032L26.536 5.94769L66.3399 21.5032V69.0849H5.49023V21.5032Z" stroke="#EF7F1A" stroke-width="1.83007" stroke-miterlimit="22.9256" stroke-linecap="round" stroke-linejoin="round"/>
<path fill-rule="evenodd" clip-rule="evenodd" d="M1.83008 19.2157L26.536 0.915039L70 17.8431V22.8758L26.536 5.94772L1.83008 24.2484V19.2157Z" stroke="#EF7F1A" stroke-width="1.83007" stroke-miterlimit="22.9256" stroke-linecap="round" stroke-linejoin="round"/>
<path fill-rule="evenodd" clip-rule="evenodd" d="M36.1438 16.0131V37.0588H13.7255V21.5033L26.9935 11.8954L36.1438 16.0131Z" stroke="#EF7F1A" stroke-width="1.83007" stroke-miterlimit="22.9256" stroke-linecap="round" stroke-linejoin="round"/>
<path fill-rule="evenodd" clip-rule="evenodd" d="M58.5621 37.0588H41.634V16.9281L58.5621 23.3333V37.0588Z" stroke="#EF7F1A" stroke-width="1.83007" stroke-miterlimit="22.9256" stroke-linecap="round" stroke-linejoin="round"/>
<path d="M36.1438 40.7189H13.7255V60.8497H36.1438V40.7189Z" stroke="#EF7F1A" stroke-width="1.83007" stroke-miterlimit="22.9256" stroke-linecap="round" stroke-linejoin="round"/>
<path d="M58.5621 40.7189H41.1765V60.8497H58.5621V40.7189Z" stroke="#EF7F1A" stroke-width="1.83007" stroke-miterlimit="22.9256" stroke-linecap="round" stroke-linejoin="round"/>
<path d="M25.1634 40.7189V60.8497" stroke="#EF7F1A" stroke-width="0.915033" stroke-miterlimit="22.9256" stroke-linecap="round" stroke-linejoin="round"/>
<path d="M25.1634 13.268V37.0589" stroke="#EF7F1A" stroke-width="0.915033" stroke-miterlimit="22.9256" stroke-linecap="round" stroke-linejoin="round"/>
<path d="M49.8693 20.1307V37.0588" stroke="#EF7F1A" stroke-width="0.915033" stroke-miterlimit="22.9256" stroke-linecap="round" stroke-linejoin="round"/>
<path d="M49.8693 40.7189V60.8497" stroke="#EF7F1A" stroke-width="0.915033" stroke-miterlimit="22.9256" stroke-linecap="round" stroke-linejoin="round"/>
<path d="M13.7255 26.0784H36.1438" stroke="#EF7F1A" stroke-width="0.915033" stroke-miterlimit="22.9256" stroke-linecap="round" stroke-linejoin="round"/>
<path d="M41.634 26.0784H58.5621" stroke="#EF7F1A" stroke-width="0.915033" stroke-miterlimit="22.9256" stroke-linecap="round" stroke-linejoin="round"/>
<path d="M13.7255 50.7843H36.1438" stroke="#EF7F1A" stroke-width="0.915033" stroke-miterlimit="22.9256" stroke-linecap="round" stroke-linejoin="round"/>
<path d="M41.634 50.7843H58.5621" stroke="#EF7F1A" stroke-width="0.915033" stroke-miterlimit="22.9256" stroke-linecap="round" stroke-linejoin="round"/>
</svg>
