<svg width="71" height="80" viewBox="0 0 71 80" fill="none" xmlns="http://www.w3.org/2000/svg">
<path d="M18.4608 16.0154H5.03601V50.0938H18.4608V16.0154Z" stroke="#EF7F1A" stroke-width="1.03268" stroke-miterlimit="22.9256" stroke-linecap="round" stroke-linejoin="round"/>
<path d="M34.4674 16.0154H20.0099V50.0938H34.4674V16.0154Z" stroke="#EF7F1A" stroke-width="1.03268" stroke-miterlimit="22.9256" stroke-linecap="round" stroke-linejoin="round"/>
<path d="M50.9902 16.0154H36.5327V50.0938H50.9902V16.0154Z" stroke="#EF7F1A" stroke-width="1.03268" stroke-miterlimit="22.9256" stroke-linecap="round" stroke-linejoin="round"/>
<path d="M66.4805 16.0154H53.0557V50.0938H66.4805V16.0154Z" stroke="#EF7F1A" stroke-width="1.03268" stroke-miterlimit="22.9256" stroke-linecap="round" stroke-linejoin="round"/>
<path fill-rule="evenodd" clip-rule="evenodd" d="M1.42163 12.9173H69.5785V20.6624H69.0622V53.7082H45.8269V53.1918H1.42163V12.9173Z" stroke="#EF7F1A" stroke-width="2.06536" stroke-miterlimit="22.9256" stroke-linecap="round" stroke-linejoin="round"/>
<path d="M8.65039 60.4206V72.8128" stroke="#EF7F1A" stroke-width="1.03268" stroke-miterlimit="22.9256" stroke-linecap="round" stroke-linejoin="round"/>
<path d="M15.8792 60.4206V72.8128" stroke="#EF7F1A" stroke-width="1.03268" stroke-miterlimit="22.9256" stroke-linecap="round" stroke-linejoin="round"/>
<path d="M23.1079 60.4206V72.8128" stroke="#EF7F1A" stroke-width="1.03268" stroke-miterlimit="22.9256" stroke-linecap="round" stroke-linejoin="round"/>
<path d="M30.3367 60.4206V72.8128" stroke="#EF7F1A" stroke-width="1.03268" stroke-miterlimit="22.9256" stroke-linecap="round" stroke-linejoin="round"/>
<path d="M37.5654 60.4206V72.8128" stroke="#EF7F1A" stroke-width="1.03268" stroke-miterlimit="22.9256" stroke-linecap="round" stroke-linejoin="round"/>
<path d="M45.3105 60.4206V72.8128" stroke="#EF7F1A" stroke-width="1.03268" stroke-miterlimit="22.9256" stroke-linecap="round" stroke-linejoin="round"/>
<path d="M52.0229 60.4206V72.8128" stroke="#EF7F1A" stroke-width="1.03268" stroke-miterlimit="22.9256" stroke-linecap="round" stroke-linejoin="round"/>
<path d="M59.7681 60.4206V72.8128" stroke="#EF7F1A" stroke-width="1.03268" stroke-miterlimit="22.9256" stroke-linecap="round" stroke-linejoin="round"/>
<path fill-rule="evenodd" clip-rule="evenodd" d="M69.0622 12.9173L69.5785 13.4337V16.0154H69.0622V78.4925H45.8269V77.9762H1.42163V12.9173H69.0622Z" stroke="#EF7F1A" stroke-width="2.06536" stroke-miterlimit="22.9256" stroke-linecap="round" stroke-linejoin="round"/>
<path fill-rule="evenodd" clip-rule="evenodd" d="M7.61771 1.55786H63.3824C64.4151 3.62322 69.0622 12.9173 69.0622 12.9173H1.42163L7.61771 1.55786V1.55786Z" stroke="#EF7F1A" stroke-width="2.06536" stroke-miterlimit="22.9256" stroke-linecap="round" stroke-linejoin="round"/>
<path d="M12.2648 4.65591L9.68311 9.30297" stroke="#EF7F1A" stroke-width="1.03268" stroke-miterlimit="22.9256" stroke-linecap="round" stroke-linejoin="round"/>
<path d="M19.4935 4.65591L18.4608 9.30297" stroke="#EF7F1A" stroke-width="1.03268" stroke-miterlimit="22.9256" stroke-linecap="round" stroke-linejoin="round"/>
<path d="M27.2386 4.65591L26.7223 9.30297" stroke="#EF7F1A" stroke-width="1.03268" stroke-miterlimit="22.9256" stroke-linecap="round" stroke-linejoin="round"/>
<path d="M35.5 4.65591V9.30297" stroke="#EF7F1A" stroke-width="1.03268" stroke-miterlimit="22.9256" stroke-linecap="round" stroke-linejoin="round"/>
<path d="M50.9902 4.65591L52.0229 9.30297M58.219 4.65591L60.8007 9.30297L58.219 4.65591ZM35.5 4.65591V9.30297V4.65591ZM43.2451 4.65591L43.7614 9.30297L43.2451 4.65591Z" stroke="#EF7F1A" stroke-width="1.03268" stroke-miterlimit="22.9256" stroke-linecap="round" stroke-linejoin="round"/>
</svg>
