<svg width="70" height="75" viewBox="0 0 70 75" fill="none" xmlns="http://www.w3.org/2000/svg">
<path d="M4.77273 0.674316H66.2879C66.2879 0.674316 66.8182 1.20462 66.8182 1.73492V66.9622C66.8182 67.4925 66.2879 67.4925 66.2879 67.4925H4.77273C4.24243 67.4925 4.24243 67.4925 4.24243 66.9622V56.3561H5.83334V65.9016H65.2273V2.79553H5.83334V56.3561H4.24243V1.73492C4.24243 1.20462 4.24243 0.674316 4.77273 0.674316V0.674316Z" fill="#EF7F1A"/>
<path d="M8.48487 4.91675H62.5758L63.1061 5.44705V62.7198C63.1061 63.2501 62.5758 63.2501 62.5758 63.2501H8.48487C8.48487 63.2501 7.95457 63.2501 7.95457 62.7198V5.44705L8.48487 4.91675V4.91675ZM62.0455 5.97735H9.01517V55.2955V56.8864V57.9471V62.1895H62.0455V5.97735V5.97735ZM11.1364 7.56826C82.197 7.56826 -22.2727 7.56826 11.1364 7.56826V7.56826Z" fill="#EF7F1A"/>
<path fill-rule="evenodd" clip-rule="evenodd" d="M12.197 9.15918H31.8182V59.0077H12.197V55.2955V36.7349V9.15918Z" stroke="#EF7F1A" stroke-width="1.06061" stroke-miterlimit="22.9256" stroke-linecap="round" stroke-linejoin="round"/>
<path fill-rule="evenodd" clip-rule="evenodd" d="M33.4091 8.09857H59.9243V60.5986H33.4091V8.09857V8.09857ZM36.0606 10.2198H57.8031V57.9471H36.0606V34.0834H35.5303C35 34.0834 34.4697 33.5531 34.4697 33.0228C34.4697 32.4925 35 31.9622 35.5303 31.9622H36.0606V10.2198V10.2198Z" stroke="#EF7F1A" stroke-width="1.06061" stroke-miterlimit="22.9256" stroke-linecap="round" stroke-linejoin="round"/>
<path d="M68.9394 66.9622H1.06061V73.3258H68.9394V66.9622Z" stroke="#EF7F1A" stroke-width="2.12121" stroke-miterlimit="22.9256" stroke-linecap="round" stroke-linejoin="round"/>
<path d="M41.894 31.9622H35.5303C34.9446 31.9622 34.4697 32.3183 34.4697 32.7576C34.4697 33.197 34.9446 33.5531 35.5303 33.5531H41.894C42.4797 33.5531 42.9546 33.197 42.9546 32.7576C42.9546 32.3183 42.4797 31.9622 41.894 31.9622Z" stroke="#EF7F1A" stroke-width="1.06061" stroke-miterlimit="22.9256" stroke-linecap="round" stroke-linejoin="round"/>
</svg>
